<mxfile host="app.diagrams.net" agent="Mozilla/5.0 (Macintosh; Intel Mac OS X 10_15_7) AppleWebKit/537.36 (KHTML, like Gecko) Chrome/129.0.0.0 Safari/537.36" version="24.7.16">
  <diagram name="Page-1" id="ViTmkKUVfnOevWZFS9nb">
    <mxGraphModel dx="1049" dy="650" grid="1" gridSize="10" guides="1" tooltips="1" connect="1" arrows="1" fold="1" page="1" pageScale="1" pageWidth="600" pageHeight="400" math="0" shadow="0">
      <root>
        <mxCell id="0" />
        <mxCell id="1" parent="0" />
        <mxCell id="oCGg1YvI8u-OgIaCWoI_-8" style="edgeStyle=orthogonalEdgeStyle;rounded=0;orthogonalLoop=1;jettySize=auto;html=1;" edge="1" parent="1" source="oCGg1YvI8u-OgIaCWoI_-1" target="oCGg1YvI8u-OgIaCWoI_-4">
          <mxGeometry relative="1" as="geometry" />
        </mxCell>
        <mxCell id="oCGg1YvI8u-OgIaCWoI_-1" value="User" style="shape=umlActor;verticalLabelPosition=bottom;verticalAlign=top;html=1;outlineConnect=0;" vertex="1" parent="1">
          <mxGeometry x="40" y="210" width="30" height="60" as="geometry" />
        </mxCell>
        <mxCell id="oCGg1YvI8u-OgIaCWoI_-14" style="edgeStyle=orthogonalEdgeStyle;rounded=0;orthogonalLoop=1;jettySize=auto;html=1;exitX=1;exitY=0.5;exitDx=0;exitDy=0;exitPerimeter=0;" edge="1" parent="1" source="oCGg1YvI8u-OgIaCWoI_-4" target="oCGg1YvI8u-OgIaCWoI_-10">
          <mxGeometry relative="1" as="geometry" />
        </mxCell>
        <mxCell id="oCGg1YvI8u-OgIaCWoI_-47" style="edgeStyle=orthogonalEdgeStyle;rounded=0;orthogonalLoop=1;jettySize=auto;html=1;exitX=1;exitY=0.25;exitDx=0;exitDy=0;exitPerimeter=0;" edge="1" parent="1" source="oCGg1YvI8u-OgIaCWoI_-4" target="oCGg1YvI8u-OgIaCWoI_-9">
          <mxGeometry relative="1" as="geometry">
            <Array as="points">
              <mxPoint x="280" y="230" />
              <mxPoint x="280" y="159" />
            </Array>
          </mxGeometry>
        </mxCell>
        <mxCell id="oCGg1YvI8u-OgIaCWoI_-48" style="edgeStyle=orthogonalEdgeStyle;rounded=0;orthogonalLoop=1;jettySize=auto;html=1;exitX=1;exitY=0.75;exitDx=0;exitDy=0;exitPerimeter=0;" edge="1" parent="1" source="oCGg1YvI8u-OgIaCWoI_-4" target="oCGg1YvI8u-OgIaCWoI_-11">
          <mxGeometry relative="1" as="geometry">
            <Array as="points">
              <mxPoint x="280" y="249" />
              <mxPoint x="280" y="319" />
            </Array>
          </mxGeometry>
        </mxCell>
        <mxCell id="oCGg1YvI8u-OgIaCWoI_-4" value="Load Balancer" style="sketch=0;points=[[0,0,0],[0.25,0,0],[0.5,0,0],[0.75,0,0],[1,0,0],[0,1,0],[0.25,1,0],[0.5,1,0],[0.75,1,0],[1,1,0],[0,0.25,0],[0,0.5,0],[0,0.75,0],[1,0.25,0],[1,0.5,0],[1,0.75,0]];outlineConnect=0;fontColor=#232F3E;fillColor=#8C4FFF;strokeColor=#ffffff;dashed=0;verticalLabelPosition=bottom;verticalAlign=top;align=center;html=1;fontSize=12;fontStyle=0;aspect=fixed;shape=mxgraph.aws4.resourceIcon;resIcon=mxgraph.aws4.elastic_load_balancing;" vertex="1" parent="1">
          <mxGeometry x="160" y="220" width="39" height="39" as="geometry" />
        </mxCell>
        <mxCell id="oCGg1YvI8u-OgIaCWoI_-9" value="API1" style="sketch=0;outlineConnect=0;fontColor=#232F3E;gradientColor=none;fillColor=#232F3D;strokeColor=none;dashed=0;verticalLabelPosition=bottom;verticalAlign=top;align=center;html=1;fontSize=12;fontStyle=0;aspect=fixed;pointerEvents=1;shape=mxgraph.aws4.traditional_server;" vertex="1" parent="1">
          <mxGeometry x="310" y="140" width="21.92" height="38" as="geometry" />
        </mxCell>
        <mxCell id="oCGg1YvI8u-OgIaCWoI_-10" value="API 2&lt;div&gt;&lt;br&gt;&lt;/div&gt;" style="sketch=0;outlineConnect=0;fontColor=#232F3E;gradientColor=none;fillColor=#232F3D;strokeColor=none;dashed=0;verticalLabelPosition=bottom;verticalAlign=top;align=center;html=1;fontSize=12;fontStyle=0;aspect=fixed;pointerEvents=1;shape=mxgraph.aws4.traditional_server;" vertex="1" parent="1">
          <mxGeometry x="310" y="221" width="21.92" height="38" as="geometry" />
        </mxCell>
        <mxCell id="oCGg1YvI8u-OgIaCWoI_-11" value="API 3" style="sketch=0;outlineConnect=0;fontColor=#232F3E;gradientColor=none;fillColor=#232F3D;strokeColor=none;dashed=0;verticalLabelPosition=bottom;verticalAlign=top;align=center;html=1;fontSize=12;fontStyle=0;aspect=fixed;pointerEvents=1;shape=mxgraph.aws4.traditional_server;" vertex="1" parent="1">
          <mxGeometry x="310" y="300" width="21.92" height="38" as="geometry" />
        </mxCell>
        <mxCell id="oCGg1YvI8u-OgIaCWoI_-35" style="edgeStyle=orthogonalEdgeStyle;rounded=0;orthogonalLoop=1;jettySize=auto;html=1;exitX=1;exitY=0.5;exitDx=0;exitDy=0;exitPerimeter=0;" edge="1" parent="1" source="oCGg1YvI8u-OgIaCWoI_-24" target="oCGg1YvI8u-OgIaCWoI_-33">
          <mxGeometry relative="1" as="geometry" />
        </mxCell>
        <mxCell id="oCGg1YvI8u-OgIaCWoI_-24" value="RabbitMQ" style="sketch=0;points=[[0,0,0],[0.25,0,0],[0.5,0,0],[0.75,0,0],[1,0,0],[0,1,0],[0.25,1,0],[0.5,1,0],[0.75,1,0],[1,1,0],[0,0.25,0],[0,0.5,0],[0,0.75,0],[1,0.25,0],[1,0.5,0],[1,0.75,0]];outlineConnect=0;fontColor=#232F3E;fillColor=#E7157B;strokeColor=#ffffff;dashed=0;verticalLabelPosition=bottom;verticalAlign=top;align=center;html=1;fontSize=12;fontStyle=0;aspect=fixed;shape=mxgraph.aws4.resourceIcon;resIcon=mxgraph.aws4.sqs;" vertex="1" parent="1">
          <mxGeometry x="400.5" y="220" width="39" height="39" as="geometry" />
        </mxCell>
        <mxCell id="oCGg1YvI8u-OgIaCWoI_-26" style="edgeStyle=orthogonalEdgeStyle;rounded=0;orthogonalLoop=1;jettySize=auto;html=1;entryX=0;entryY=0.25;entryDx=0;entryDy=0;entryPerimeter=0;" edge="1" parent="1" source="oCGg1YvI8u-OgIaCWoI_-9" target="oCGg1YvI8u-OgIaCWoI_-24">
          <mxGeometry relative="1" as="geometry" />
        </mxCell>
        <mxCell id="oCGg1YvI8u-OgIaCWoI_-27" style="edgeStyle=orthogonalEdgeStyle;rounded=0;orthogonalLoop=1;jettySize=auto;html=1;entryX=0;entryY=0.5;entryDx=0;entryDy=0;entryPerimeter=0;" edge="1" parent="1" source="oCGg1YvI8u-OgIaCWoI_-10" target="oCGg1YvI8u-OgIaCWoI_-24">
          <mxGeometry relative="1" as="geometry" />
        </mxCell>
        <mxCell id="oCGg1YvI8u-OgIaCWoI_-28" style="edgeStyle=orthogonalEdgeStyle;rounded=0;orthogonalLoop=1;jettySize=auto;html=1;entryX=0;entryY=0.75;entryDx=0;entryDy=0;entryPerimeter=0;" edge="1" parent="1" source="oCGg1YvI8u-OgIaCWoI_-11" target="oCGg1YvI8u-OgIaCWoI_-24">
          <mxGeometry relative="1" as="geometry" />
        </mxCell>
        <mxCell id="oCGg1YvI8u-OgIaCWoI_-33" value="Transactions&lt;div&gt;Worker&lt;/div&gt;" style="sketch=0;outlineConnect=0;fontColor=#232F3E;gradientColor=none;fillColor=#232F3D;strokeColor=none;dashed=0;verticalLabelPosition=bottom;verticalAlign=top;align=center;html=1;fontSize=12;fontStyle=0;aspect=fixed;pointerEvents=1;shape=mxgraph.aws4.traditional_server;" vertex="1" parent="1">
          <mxGeometry x="520" y="220" width="22.5" height="39" as="geometry" />
        </mxCell>
        <mxCell id="oCGg1YvI8u-OgIaCWoI_-43" style="edgeStyle=orthogonalEdgeStyle;rounded=0;orthogonalLoop=1;jettySize=auto;html=1;" edge="1" parent="1" source="oCGg1YvI8u-OgIaCWoI_-36" target="oCGg1YvI8u-OgIaCWoI_-9">
          <mxGeometry relative="1" as="geometry">
            <Array as="points">
              <mxPoint x="320" y="60" />
            </Array>
          </mxGeometry>
        </mxCell>
        <mxCell id="oCGg1YvI8u-OgIaCWoI_-44" style="edgeStyle=orthogonalEdgeStyle;rounded=0;orthogonalLoop=1;jettySize=auto;html=1;" edge="1" parent="1" source="oCGg1YvI8u-OgIaCWoI_-36" target="oCGg1YvI8u-OgIaCWoI_-10">
          <mxGeometry relative="1" as="geometry">
            <Array as="points">
              <mxPoint x="350" y="60" />
              <mxPoint x="350" y="210" />
              <mxPoint x="321" y="210" />
            </Array>
          </mxGeometry>
        </mxCell>
        <mxCell id="oCGg1YvI8u-OgIaCWoI_-46" style="edgeStyle=orthogonalEdgeStyle;rounded=0;orthogonalLoop=1;jettySize=auto;html=1;" edge="1" parent="1" source="oCGg1YvI8u-OgIaCWoI_-36" target="oCGg1YvI8u-OgIaCWoI_-11">
          <mxGeometry relative="1" as="geometry">
            <Array as="points">
              <mxPoint x="350" y="60" />
              <mxPoint x="350" y="290" />
              <mxPoint x="321" y="290" />
            </Array>
          </mxGeometry>
        </mxCell>
        <mxCell id="oCGg1YvI8u-OgIaCWoI_-36" value="" style="outlineConnect=0;dashed=0;verticalLabelPosition=bottom;verticalAlign=top;align=center;html=1;shape=mxgraph.aws3.postgre_sql_instance;fillColor=#2E73B8;gradientColor=none;" vertex="1" parent="1">
          <mxGeometry x="400" y="40" width="40" height="40" as="geometry" />
        </mxCell>
        <mxCell id="oCGg1YvI8u-OgIaCWoI_-42" style="edgeStyle=orthogonalEdgeStyle;rounded=0;orthogonalLoop=1;jettySize=auto;html=1;entryX=1;entryY=0.5;entryDx=0;entryDy=0;entryPerimeter=0;" edge="1" parent="1" source="oCGg1YvI8u-OgIaCWoI_-33" target="oCGg1YvI8u-OgIaCWoI_-36">
          <mxGeometry relative="1" as="geometry">
            <Array as="points">
              <mxPoint x="531" y="60" />
            </Array>
          </mxGeometry>
        </mxCell>
      </root>
    </mxGraphModel>
  </diagram>
</mxfile>
